<svg width="29" height="29" viewBox="0 0 29 29" fill="none" xmlns="http://www.w3.org/2000/svg">
<path fill-rule="evenodd" clip-rule="evenodd" d="M19.954 25.9792H9.86703C6.16184 25.9792 3.31936 24.6409 4.12676 19.2545L5.06688 11.9548C5.56459 9.26713 7.27893 8.23853 8.78313 8.23853H21.0821C22.6085 8.23853 24.2232 9.34455 24.7984 11.9548L25.7385 19.2545C26.4242 24.0326 23.6592 25.9792 19.954 25.9792Z" stroke="white" stroke-width="1.8" stroke-linecap="round" stroke-linejoin="round"/>
<path d="M20.1197 7.97305C20.1197 5.08988 17.7825 2.75261 14.8993 2.75261V2.75261C13.5109 2.74673 12.1774 3.29414 11.1936 4.2738C10.2098 5.25346 9.65673 6.58466 9.65674 7.97305H9.65674" stroke="white" stroke-width="1.8" stroke-linecap="round" stroke-linejoin="round"/>
<path d="M18.483 13.4147H18.4277" stroke="white" stroke-width="1.8" stroke-linecap="round" stroke-linejoin="round"/>
<path d="M11.4376 13.4147H11.3823" stroke="white" stroke-width="1.8" stroke-linecap="round" stroke-linejoin="round"/>
</svg>
