<svg width="33" height="14" viewBox="0 0 33 14" fill="none" xmlns="http://www.w3.org/2000/svg">
<path d="M1.12256 5.94937C0.625502 5.94937 0.222559 6.35231 0.222559 6.84937C0.222559 7.34642 0.625502 7.74937 1.12256 7.74937V5.94937ZM32.5138 7.48576C32.8653 7.13429 32.8653 6.56444 32.5138 6.21297L26.7863 0.485404C26.4348 0.133933 25.865 0.133933 25.5135 0.485404C25.162 0.836876 25.162 1.40672 25.5135 1.7582L30.6047 6.84937L25.5135 11.9405C25.162 12.292 25.162 12.8619 25.5135 13.2133C25.865 13.5648 26.4348 13.5648 26.7863 13.2133L32.5138 7.48576ZM1.12256 7.74937H31.8774V5.94937H1.12256V7.74937Z" fill="white"/>
</svg>
