<svg width="66" height="59" viewBox="0 0 66 59" fill="none" xmlns="http://www.w3.org/2000/svg">
<path d="M46.125 39.3958L54.4667 44.325L52.2792 47.8833L41.75 41.5833V27H46.125V39.3958ZM65.0833 38.6667C65.0833 49.9542 55.9542 59.0833 44.6667 59.0833C37.725 59.0833 31.6292 55.6125 27.925 50.3333H9.66667V27H0.916672L30.0833 0.75L50.5 19.0958C58.9292 21.6042 65.0833 29.4208 65.0833 38.6667ZM59.25 38.6667C59.25 30.6167 52.7167 24.0833 44.6667 24.0833C36.6167 24.0833 30.0833 30.6167 30.0833 38.6667C30.0833 46.7167 36.6167 53.25 44.6667 53.25C52.7167 53.25 59.25 46.7167 59.25 38.6667Z" fill="#003DA7"/>
</svg>
