<svg width="80" height="80" viewBox="0 0 80 80" fill="none" xmlns="http://www.w3.org/2000/svg">
<circle cx="40" cy="40" r="40" fill="#00A78F"/>
<g clip-path="url(#clip0_325_22)">
<path d="M20 22.5C20 21.1172 21.1172 20 22.5 20H32.5C33.8828 20 35 21.1172 35 22.5V52.5C35 56.6406 31.6406 60 27.5 60C23.3594 60 20 56.6406 20 52.5V22.5ZM37.4688 53.2734C37.4922 53.0156 37.5 52.7578 37.5 52.5V32.0312L43.3906 26.1406C44.3672 25.1641 45.9531 25.1641 46.9297 26.1406L54 33.2109C54.9766 34.1875 54.9766 35.7734 54 36.75L37.4688 53.2734ZM34.2812 60L49.2812 45H57.5C58.8828 45 60 46.1172 60 47.5V57.5C60 58.8828 58.8828 60 57.5 60H34.2812ZM30 25H25V30H30V25ZM25 35V40H30V35H25ZM27.5 54.375C27.9973 54.375 28.4742 54.1775 28.8258 53.8258C29.1775 53.4742 29.375 52.9973 29.375 52.5C29.375 52.0027 29.1775 51.5258 28.8258 51.1742C28.4742 50.8225 27.9973 50.625 27.5 50.625C27.0027 50.625 26.5258 50.8225 26.1742 51.1742C25.8225 51.5258 25.625 52.0027 25.625 52.5C25.625 52.9973 25.8225 53.4742 26.1742 53.8258C26.5258 54.1775 27.0027 54.375 27.5 54.375Z" fill="white"/>
</g>
<defs>
<clipPath id="clip0_325_22">
<rect width="40" height="40" fill="white" transform="translate(20 20)"/>
</clipPath>
</defs>
</svg>
