<svg width="80" height="80" viewBox="0 0 80 80" fill="none" xmlns="http://www.w3.org/2000/svg">
<circle cx="40" cy="40" r="40" fill="#00A78F"/>
<path d="M52.8333 41.4999L43.3333 50.9999H39.5V47.1666L49 37.6666L52.8333 41.4999ZM58.5 40.1666C58.5 40.6666 58 41.1666 57.5 41.6666L53.3333 45.8333L51.8333 44.3333L56.1667 39.9999L55.1667 38.9999L54 40.1666L50.1667 36.3333L53.8333 32.8333C54.1667 32.4999 54.8333 32.4999 55.3333 32.8333L57.6667 35.1666C58 35.4999 58 36.1666 57.6667 36.6666C57.3333 36.9999 57 37.3333 57 37.6666C57 37.9999 57.3333 38.3333 57.6667 38.6666C58.1667 39.1666 58.6667 39.6666 58.5 40.1666ZM25 53.3333V26.6666H36.6667V34.9999H45V37.4999L48.3333 34.1666V33.3333L38.3333 23.3333H25C23.1667 23.3333 21.6667 24.8333 21.6667 26.6666V53.3333C21.6667 55.1666 23.1667 56.6666 25 56.6666H45C46.8333 56.6666 48.3333 55.1666 48.3333 53.3333H25ZM38.3333 48.4999C38 48.4999 37.6667 48.6666 37.5 48.6666L36.6667 44.9999H34.1667L30.6667 47.8333L31.6667 43.3333H29.1667L27.5 51.6666H30L34.8333 47.3333L35.8333 51.1666H37.5L38.3333 50.9999V48.4999Z" fill="white"/>
</svg>
