<svg width="80" height="80" viewBox="0 0 80 80" fill="none" xmlns="http://www.w3.org/2000/svg">
<circle cx="40" cy="40" r="40" fill="#00A78F"/>
<g clip-path="url(#clip0_325_23)">
<path d="M21.7188 43.4687L35.8359 56.6484C36.4219 57.1952 37.1953 57.4999 38 57.4999C38.8047 57.4999 39.5781 57.1952 40.1641 56.6484L40.3672 56.4609C38.875 54.2656 38 51.6093 38 48.7499C38 41.1562 44.1562 34.9999 51.75 34.9999C53.9609 34.9999 56.0469 35.5234 57.8984 36.4452C57.9688 35.9374 58 35.4296 58 34.914V34.4609C58 28.9999 54.0547 24.3437 48.6719 23.4452C45.1094 22.8515 41.4844 24.0156 38.9375 26.5624L38 27.4999L37.0625 26.5624C34.5156 24.0156 30.8906 22.8515 27.3281 23.4452C21.9453 24.3437 18 28.9999 18 34.4609V34.914C18 38.1562 19.3437 41.2577 21.7188 43.4687ZM63 48.7499C63 45.7662 61.8147 42.9048 59.7049 40.795C57.5952 38.6852 54.7337 37.4999 51.75 37.4999C48.7663 37.4999 45.9048 38.6852 43.795 40.795C41.6853 42.9048 40.5 45.7662 40.5 48.7499C40.5 51.7336 41.6853 54.5951 43.795 56.7049C45.9048 58.8147 48.7663 59.9999 51.75 59.9999C54.7337 59.9999 57.5952 58.8147 59.7049 56.7049C61.8147 54.5951 63 51.7336 63 48.7499ZM57.0078 45.3671C57.4922 45.8515 57.4922 46.6484 57.0078 47.1327L51.3828 52.7577C50.8984 53.2421 50.1016 53.2421 49.6172 52.7577L46.4922 49.6327C46.0078 49.1484 46.0078 48.3515 46.4922 47.8671C46.9766 47.3827 47.7734 47.3827 48.2578 47.8671L50.5 50.1093L55.2422 45.3671C55.7266 44.8827 56.5234 44.8827 57.0078 45.3671Z" fill="white"/>
</g>
<defs>
<clipPath id="clip0_325_23">
<rect width="45" height="40" fill="white" transform="translate(18 20)"/>
</clipPath>
</defs>
</svg>
